#!OML:ASF E:\acrobat2\Project_11_07_03\Capture day 1\Session 1\Acrobat.ASF
:FULLY-SPECIFIED
:DEGREES
145
root 6.54195 16.5066 -18.5635 29.8574 62.0779 21.6977
lowerback 3.19051 -1.59968 -8.05126
upperback 0.969798 -2.36429 -0.91255
thorax -0.497506 -1.17643 3.64374
lowerneck 5.70889 -18.2191 -9.29982
upperneck -10.773 -23.8371 19.2939
head -0.578467 -12.4527 7.00864
rclavicle -9.16397e-014 2.78299e-015
rhumerus -24.2172 9.2368 -67.2995
rradius 57.2367
rwrist -2.79202
rhand -13.3839 -37.1204
rfingers 7.12502
rthumb 12.7231 -66.7128
lclavicle -9.16397e-014 2.78299e-015
lhumerus -46.8292 -23.6304 77.1888
lradius 21.9005
lwrist 2.31455
lhand -9.71185 -13.9481
lfingers 7.12502
lthumb 16.2611 15.39
rfemur -39.5208 -12.7401 19.3818
rtibia 57.5037
rfoot -45.1667 -23.3176
rtoes 13.7693
lfemur -8.29154 8.4245 0.921234
ltibia 40.7368
lfoot -5.88732 2.92661
ltoes 55.2672
146
root 6.55683 16.4895 -18.3668 28.6625 61.6856 20.8315
lowerback 3.53406 -1.99247 -7.58322
upperback 0.849331 -2.91222 -0.925075
thorax -0.772905 -1.43694 3.40114
lowerneck 5.7016 -17.6287 -9.40409
upperneck -10.4219 -23.0765 19.3403
head -0.559335 -12.0632 7.07519
rclavicle 3.54831e-014 5.84427e-014
rhumerus -22.5801 11.9568 -66.0567
rradius 60.7405
rwrist -2.59772
rhand -14.1279 -37.2245
rfingers 7.12502
rthumb 12.0058 -66.8601
lclavicle 3.54831e-014 5.84427e-014
lhumerus -48.8683 -25.3023 78.0123
lradius 21.5263
lwrist 1.89786
lhand -8.95817 -13.8926
lfingers 7.12502
lthumb 16.9867 15.3847
rfemur -38.8205 -12.1968 20.2574
rtibia 57.6439
rfoot -45.6667 -22.8839
rtoes 14.637
lfemur -9.63826 6.27365 1.57493
ltibia 43.6778
lfoot -5.14458 5.92888
ltoes 54.7576
147
root 6.56839 16.474 -18.182 26.9284 61.0226 19.3571
lowerback 3.86204 -2.22857 -6.89047
upperback 0.813516 -3.23312 -0.9086
thorax -0.995271 -1.59041 3.05925
lowerneck 5.35567 -17.1848 -9.31775
upperneck -10.0303 -22.4865 19.3382
head -0.480993 -11.7462 7.05492
rclavicle -5.07895e-014 1.98785e-014
rhumerus -20.6022 14.0907 -64.3592
rradius 64.2764
rwrist -2.26203
rhand -14.6498 -36.3763
rfingers 7.12502
rthumb 11.5025 -66.0407
lclavicle -5.07895e-014 1.98785e-014
lhumerus -50.5554 -26.6217 78.6125
lradius 20.9385
lwrist 0.979744
lhand -7.9792 -13.9654
lfingers 7.12502
lthumb 17.9289 15.2281
rfemur -37.9779 -11.6418 21.4021
rtibia 57.4988
rfoot -45.9172 -22.4515
rtoes 15.2943
lfemur -10.9561 4.15659 2.31038
ltibia 46.7043
lfoot -3.56654 8.92005
ltoes 52.5748
148
root 6.58181 16.454 -18.0233 25.1797 59.8551 17.6107
lowerback 4.00232 -2.26238 -6.07311
upperback 0.73886 -3.2627 -0.905547
thorax -1.19415 -1.60095 2.61879
lowerneck 4.82126 -16.9009 -9.00772
upperneck -9.5318 -22.1104 19.063
head -0.372374 -11.5205 6.89297
rclavicle 2.05742e-014 -1.19271e-014
rhumerus -18.1768 16.0572 -62.0955
rradius 67.6412
rwrist -1.87327
rhand -15.4201 -35.4883
rfingers 7.12502
rthumb 10.7596 -65.1928
lclavicle 2.05742e-014 -1.19271e-014
lhumerus -52.1697 -27.908 79.2937
lradius 20.4366
lwrist 0.194275
lhand -7.50448 -12.6324
lfingers 7.12502
lthumb 18.3856 16.5187
rfemur -37.2073 -10.8471 22.4699
rtibia 57.0759
rfoot -45.7681 -21.9455
rtoes 15.0633
lfemur -12.4649 2.3997 2.84419
ltibia 49.9482
lfoot -0.37566 11.9422
ltoes 48.7745
149
root 6.60348 16.4298 -17.8998 23.8065 58.197 15.8179
lowerback 3.80472 -2.19183 -4.93458
upperback 0.545963 -3.12218 -0.980439
thorax -1.36067 -1.52977 1.90057
lowerneck 4.44274 -16.6902 -8.62563
upperneck -9.3682 -21.8101 18.5893
head -0.407076 -11.3441 6.69933
rclavicle 3.39922e-014 1.39149e-014
rhumerus -15.2712 18.1597 -59.3751
rradius 70.807
rwrist -1.76624
rhand -16.3069 -35.0479
rfingers 7.12502
rthumb 9.9041 -64.7949
lclavicle 3.39922e-014 1.39149e-014
lhumerus -53.7425 -28.9767 79.8623
lradius 19.924
lwrist -0.491115
lhand -6.42513 -11.6532
lfingers 7.12502
lthumb 19.4236 17.3967
rfemur -36.9915 -9.94439 23.3944
rtibia 56.816
rfoot -45.3259 -21.2911
rtoes 13.5353
lfemur -14.4286 1.18809 3.12693
ltibia 53.4441
lfoot 4.16866 14.6225
ltoes 43.9932
150
root 6.63993 16.4242 -17.7508 22.5268 57.2968 14.644
lowerback 3.8708 -2.23248 -3.90994
upperback 0.519021 -3.14245 -1.07189
thorax -1.48436 -1.54325 1.24239
lowerneck 4.25842 -16.5497 -7.85771
upperneck -9.32682 -21.5727 18.0206
head -0.552055 -11.2185 6.45693
rclavicle -2.84262e-014 -1.59028e-015
rhumerus -12.2383 19.7618 -56.3592
rradius 73.7162
rwrist -1.65367
rhand -16.6648 -34.5611
rfingers 7.12502
rthumb 9.55875 -64.3242
lclavicle -2.84262e-014 -1.59028e-015
lhumerus -55.5426 -30.6555 80.774
lradius 19.4084
lwrist -0.615685
lhand -5.28967 -11.7888
lfingers 7.12502
lthumb 20.5151 17.1472
rfemur -35.8313 -9.73163 24.1447
rtibia 56.0744
rfoot -45.1025 -20.4586
rtoes 13.3094
lfemur -16.1749 -0.808018 3.55153
ltibia 56.7815
lfoot 9.0771 15.6629
ltoes 45.3392
